# xmcd
#
# Track frame offsets: 
#        300
#        12958
#        25830
#        43954
#        55736
#        69534
#        95640
#        110182
#        121515
#        139689
#        152589
#        165787
#
# Disc length: 2390 seconds
#
# Revision: 0
# Processed by: cddbd v1.5.2PL0 Copyright (c) Steve Scherf et al.
# Submitted via: ExactAudioCopy v0.99pb5
#
DISCID=9709520c
DTITLE=Marco Pandolfi and the Jacknives - Step Back Baby
DYEAR=2004
DGENRE=Blues
TTITLE0=My mind is troubled
TTITLE1=Someone to love me
TTITLE2=Do you want me to cry
TTITLE3=Here's my picture
TTITLE4=Glad I don't have to worry no more
TTITLE5=I feel so all alone
TTITLE6=All alone blues
TTITLE7=Blue breeze
TTITLE8=I used to hava a woman
TTITLE9=Step back baby
TTITLE10=One more chance with you
TTITLE11=Last ride
EXTD=
EXTT0=
EXTT1=
EXTT2=
EXTT3=
EXTT4=
EXTT5=
EXTT6=
EXTT7=
EXTT8=
EXTT9=
EXTT10=
EXTT11=
PLAYORDER=
